<svg width="14" height="14" viewBox="0 0 14 14" fill="none" xmlns="http://www.w3.org/2000/svg">
<path fill-rule="evenodd" clip-rule="evenodd" d="M8.5 1.5C8.5 0.671573 7.82843 0 7 0C6.17157 0 5.5 0.671573 5.5 1.5V3.37695L4.17199 2.04894C3.5862 1.46315 2.63645 1.46315 2.05067 2.04894C1.46488 2.63473 1.46488 3.58448 2.05067 4.17026L3.38041 5.5H1.5C0.671573 5.5 0 6.17157 0 7C0 7.82843 0.671573 8.5 1.5 8.5H3.37891L2.05089 9.82801C1.46511 10.4138 1.46511 11.3635 2.05089 11.9493C2.63668 12.5351 3.58643 12.5351 4.17221 11.9493L5.5 10.6215V12.5C5.5 13.3284 6.17157 14 7 14C7.82843 14 8.5 13.3284 8.5 12.5V10.6196L9.82884 11.9484C10.4146 12.5342 11.3644 12.5342 11.9502 11.9484C12.5359 11.3626 12.5359 10.4129 11.9502 9.82712L10.623 8.5H12.5C13.3284 8.5 14 7.82843 14 7C14 6.17157 13.3284 5.5 12.5 5.5H10.6215L11.9504 4.17116C12.5362 3.58537 12.5362 2.63562 11.9504 2.04984C11.3646 1.46405 10.4149 1.46405 9.82907 2.04984L8.5 3.37891V1.5Z" fill="#1D8D60"/>
</svg>
